<svg width="24" height="25" viewBox="0 0 24 25" fill="none" xmlns="http://www.w3.org/2000/svg">
<path d="M20.5 3.10001C20.7652 3.10001 21.0195 3.20544 21.207 3.39297C21.3946 3.58051 21.5 3.83479 21.5 4.10001V21.8998C21.4998 22.5795 20.7752 23.0133 20.1758 22.6928L12.707 18.6986C12.4895 18.5824 12.2466 18.5219 12 18.5219C11.7534 18.5219 11.5105 18.5824 11.293 18.6986L3.23633 23.0082C2.90298 23.1863 2.5 22.945 2.5 22.5668V4.10001C2.5 3.83479 2.60543 3.58051 2.79297 3.39297C2.9805 3.20544 3.23478 3.10001 3.5 3.10001H20.5ZM3.5 4.10001V21.7338L10.8213 17.8168C11.1839 17.623 11.5888 17.5219 12 17.5219C12.4112 17.5219 12.8161 17.623 13.1787 17.8168L20.5 21.7328V4.10001H3.5Z" fill="black"/>
<path d="M21.207 3.39297L20.8535 3.74653L20.8535 3.74653L21.207 3.39297ZM21.5 21.8998L22 21.9V21.8998H21.5ZM20.1758 22.6928L19.94 23.1337L19.94 23.1337L20.1758 22.6928ZM12.707 18.6986L12.9428 18.2577L12.9427 18.2577L12.707 18.6986ZM11.293 18.6986L11.0574 18.2576L11.0571 18.2578L11.293 18.6986ZM3.23633 23.0082L3.47196 23.4492L3.47216 23.4491L3.23633 23.0082ZM2.79297 3.39297L3.14652 3.74653L3.14652 3.74653L2.79297 3.39297ZM3.5 4.10001V3.60001H3V4.10001H3.5ZM3.5 21.7338H3V22.5684L3.73587 22.1747L3.5 21.7338ZM10.8213 17.8168L10.5856 17.3759L10.5854 17.3759L10.8213 17.8168ZM13.1787 17.8168L13.4145 17.3759L13.4144 17.3758L13.1787 17.8168ZM20.5 21.7328L20.2642 22.1737L21 22.5673V21.7328H20.5ZM20.5 4.10001H21V3.60001H20.5V4.10001ZM20.5 3.10001V3.60001C20.6325 3.60001 20.7596 3.65266 20.8535 3.74653L21.207 3.39297L21.5606 3.03942C21.2794 2.75821 20.898 2.60001 20.5 2.60001V3.10001ZM21.207 3.39297L20.8535 3.74653C20.9473 3.84039 21 3.96754 21 4.10001H21.5H22C22 3.70205 21.8418 3.32063 21.5606 3.03942L21.207 3.39297ZM21.5 4.10001H21V21.8998H21.5H22V4.10001H21.5ZM21.5 21.8998L21 21.8996C20.9999 22.2015 20.6782 22.3944 20.4116 22.2519L20.1758 22.6928L19.94 23.1337C20.8722 23.6322 21.9996 22.9575 22 21.9L21.5 21.8998ZM20.1758 22.6928L20.4116 22.2519L12.9428 18.2577L12.707 18.6986L12.4712 19.1396L19.94 23.1337L20.1758 22.6928ZM12.707 18.6986L12.9427 18.2577C12.6523 18.1025 12.3284 18.0219 12 18.0219V18.5219V19.0219C12.1648 19.0219 12.3267 19.0623 12.4714 19.1396L12.707 18.6986ZM12 18.5219V18.0219C11.6716 18.0219 11.3477 18.1025 11.0574 18.2576L11.293 18.6986L11.5286 19.1396C11.6732 19.0624 11.8352 19.0219 12 19.0219V18.5219ZM11.293 18.6986L11.0571 18.2578L3.00049 22.5673L3.23633 23.0082L3.47216 23.4491L11.5288 19.1395L11.293 18.6986ZM3.23633 23.0082L3.0007 22.5672L3 22.5668H2.5H2C2 23.3229 2.80575 23.8052 3.47196 23.4492L3.23633 23.0082ZM2.5 22.5668H3V4.10001H2.5H2V22.5668H2.5ZM2.5 4.10001H3C3 3.96753 3.05266 3.84039 3.14652 3.74653L2.79297 3.39297L2.43942 3.03942C2.15821 3.32063 2 3.70204 2 4.10001H2.5ZM2.79297 3.39297L3.14652 3.74653C3.24039 3.65266 3.36753 3.60001 3.5 3.60001V3.10001V2.60001C3.10204 2.60001 2.72062 2.75821 2.43942 3.03942L2.79297 3.39297ZM3.5 3.10001V3.60001H20.5V3.10001V2.60001H3.5V3.10001ZM3.5 4.10001H3V21.7338H3.5H4V4.10001H3.5ZM3.5 21.7338L3.73587 22.1747L11.0572 18.2577L10.8213 17.8168L10.5854 17.3759L3.26413 21.2929L3.5 21.7338ZM10.8213 17.8168L11.057 18.2578C11.3468 18.1028 11.6708 18.0219 12 18.0219V17.5219V17.0219C11.5069 17.0219 11.021 17.1431 10.5856 17.3759L10.8213 17.8168ZM12 17.5219V18.0219C12.3292 18.0219 12.6532 18.1028 12.943 18.2578L13.1787 17.8168L13.4144 17.3758C12.9791 17.1431 12.4931 17.0219 12 17.0219V17.5219ZM13.1787 17.8168L12.9429 18.2577L20.2642 22.1737L20.5 21.7328L20.7358 21.2919L13.4145 17.3759L13.1787 17.8168ZM20.5 21.7328H21V4.10001H20.5H20V21.7328H20.5ZM20.5 4.10001V3.60001H3.5V4.10001V4.60001H20.5V4.10001Z" fill="black"/>
</svg>
